# xmcd
# 
# Track frame offsets:
#     150
#     11264
#     22156
#     37348
#     54508
#     69773
#     80959
#     92016
#     102515
#     118670
#     128064
#     140451
#     152419
#     163321
#     176467
#     190633
#     205333
#     217785
#     226489
#     235601
# 
# Disc length: 3306
# 
# Revision: 2
# Processed by: cddbd v1.5.2PL0 Copyright (c) Steve Scherf et al.
# Submitted via: fre:ac v1.1beta1pre4
# 
DISCID=0c0ce814
DTITLE=Various Artist - L'intégrale Country
DYEAR=2010
DGENRE=Country
TTITLE0=Kenny Rogers - Always Leaving, Always Gone
TTITLE1=Hank Thompson - Swing Wide Your Gates Of Love
TTITLE2=Exile - Middle Of The Road
TTITLE3=Johnny Paycheck - Memory Of A Memory
TTITLE4=Lacy J. Dalton - Takin' It Easy
TTITLE5=Johnny Cash - Don't Let Me Go
TTITLE6=Don Gibson - Oh Lonesome Me
TTITLE7=Willie Nelson - I'll Stay Around
TTITLE8=TG Sheppard - Strong Heart
TTITLE9=Jack Greene - Wish I Don't Have To Miss You
TTITLE10=Kenny Rogers - Ruben James
TTITLE11=Johnny Cash - Home Of The Blues
TTITLE12=Hank Locklin - Let Me Be The One
TTITLE13=Ferlin Husky - Don't Fall Asleep At The Wheel
TTITLE14=Kenny Rogers - Sunshine
TTITLE15=Porter Wagoner - Green Green Grass Of Home
TTITLE16=Hank Williams - Take These Chains From My Heart
TTITLE17=Patsy Cline - Come On In
TTITLE18=Roy Rudsky - Peel Me A Nanner
TTITLE19=Johnny Cash - Next In Line
EXTD=
EXTT0=
EXTT1=
EXTT2=
EXTT3=
EXTT4=
EXTT5=
EXTT6=
EXTT7=
EXTT8=
EXTT9=
EXTT10=
EXTT11=
EXTT12=
EXTT13=
EXTT14=
EXTT15=
EXTT16=
EXTT17=
EXTT18=
EXTT19=
PLAYORDER=
